<?xml version="1.0" encoding="UTF-8" standalone="no"?>
<svg
   version="1.1"
   id="Layer_1"
   x="0px"
   y="0px"
   viewBox="0 0 657.3504 599.99835"
   enable-background="new -14.5885 221.1206 1949.177 1206.7588"
   xml:space="preserve"
   sodipodi:docname="people.svg"
   width="657.3504"
   height="599.99835"
   inkscape:version="1.2.2 (732a01da63, 2022-12-09)"
   xmlns:inkscape="http://www.inkscape.org/namespaces/inkscape"
   xmlns:sodipodi="http://sodipodi.sourceforge.net/DTD/sodipodi-0.dtd"
   xmlns="http://www.w3.org/2000/svg"
   xmlns:svg="http://www.w3.org/2000/svg"><g
   id="_x23_000000ff"
   inkscape:label="people"
   style="fill:none;stroke:#000000;stroke-opacity:1">
	
	<path
   id="path4"
   d="m 449.90927,10.264571 c -2.51715,-0.02726 -5.03608,0.245848 -7.4765,0.834692 -7.13631,1.727962 -13.75934,6.197103 -16.93042,12.640905 -3.51141,6.96841 -3.59201,15.022196 -2.13343,22.489454 -1.33973,-0.164567 -2.66333,-0.437576 -4.00307,-0.581571 -1.21008,-0.128569 -1.86414,1.101189 -1.96678,2.073168 -0.5132,4.556464 0.0107,9.606684 3.15483,13.283745 1.40457,1.691957 3.59299,2.591258 5.8295,2.642686 0.65905,3.46106 2.75484,6.439239 3.74885,9.7923 2.07438,7.251263 -2.90093,14.79058 0.22154,21.897842 3.35476,8.012388 12.47312,11.838028 16.58957,19.351568 -1.62605,-0.0411 -2.33369,1.44025 -3.19804,2.47395 -1.82054,2.4325 -3.93258,4.67479 -5.54783,7.24102 1.64226,1.29596 3.54907,2.2526 5.18595,3.55372 -1.68009,3.18335 -4.84031,5.63624 -5.72087,9.17959 0.0594,6.80384 -0.0108,13.61834 -0.0865,20.42733 -2.58766,-8.26437 -3.18195,-16.88946 -4.45681,-25.38526 -0.27552,-1.5634 0.41062,-3.15242 -0.18362,-4.67468 -3.01983,-11.77172 -6.04458,-23.89302 -4.47793,-36.091595 -4.39734,0.884552 -7.04473,4.530804 -10.16179,7.241024 -2.83615,2.514801 -6.68245,3.471551 -10.31267,4.448671 -6.42861,1.62511 -12.9921,2.72027 -19.40989,4.38137 -6.72032,1.69711 -13.81897,2.80312 -19.84781,6.24361 -3.31694,10.19291 -4.54335,20.89433 -7.82788,31.09752 -2.82534,8.52152 -7.53032,16.40061 -9.78305,25.09699 -2.39316,11.03113 1.81958,22.1554 0.49063,33.23799 -0.34033,4.87017 -4.81259,8.40251 -5.20695,13.27269 -0.29171,5.00902 3.73302,9.32417 2.96592,14.38462 -0.9832,8.09467 -5.06758,15.51551 -6.01837,23.62046 -1.52341,12.70769 -2.51244,25.47245 -2.99865,38.25216 1.69629,-1.68682 3.93275,-2.69475 6.16923,-3.55873 2.46343,-0.95141 4.89461,-2.06815 7.50928,-2.58243 1.79892,0.0926 3.57133,0.48877 5.38106,0.46305 4.54324,-0.16972 8.50787,2.43794 12.08952,4.78818 2.54443,-6.49013 3.46879,-13.40695 4.38716,-20.23649 1.36675,-9.93578 2.03078,-20.29312 6.81713,-29.40606 -3.81934,16.56991 -5.23472,33.515 -6.97956,50.36775 -0.92379,8.36723 -3.74848,16.4054 -4.98018,24.72635 -0.28631,2.51479 -0.54088,5.22515 0.65841,7.58052 1.75031,3.61536 6.28794,5.43517 7.34677,9.41565 -1.91779,8.44431 -1.88532,17.15127 -0.8589,25.70366 0.90217,8.90722 2.61476,17.76312 2.51752,26.73725 -0.0324,4.28906 -0.16237,8.70169 -1.78844,12.76446 -1.27493,3.45083 -3.13273,6.71647 -3.89444,10.32668 -1.23711,5.79582 -1.19966,11.74551 -2.05322,17.59281 -2.87935,21.1469 -6.76304,42.155 -10.55537,63.17335 -2.00422,11.98264 -5.0786,23.85749 -5.5594,36.03036 -0.30792,5.23526 1.94469,10.40912 0.72378,15.63414 -1.95559,9.27226 -8.64318,16.71947 -11.80879,25.56503 -1.79894,4.85471 -2.44683,10.21771 -1.09627,15.25246 2.20948,1.97482 5.14212,3.15784 8.04309,3.9344 6.94721,1.75373 14.505,-0.5243 19.80453,-4.98306 6.8824,-5.5953 10.42715,-14.42544 9.73026,-22.96755 5.44542,-5.13245 9.42094,-11.51979 12.35433,-18.21554 4.11646,-9.24156 6.56344,-19.03853 9.46441,-28.6658 3.59787,-12.28082 7.42326,-24.505 10.91301,-36.81678 6.60689,-22.14466 9.89644,-44.98857 14.46669,-67.54973 2.7173,-12.99566 5.67257,-26.01771 10.52372,-38.46314 7.69274,24.66465 12.94906,49.98844 16.20658,75.51697 1.57204,11.95172 3.79179,23.8668 4.02949,35.94196 -0.0756,6.71647 -1.01588,13.38687 -1.47507,20.08786 -0.2485,4.96274 -0.41041,10.07946 1.34531,14.8416 -0.0973,3.62563 -1.7716,6.99917 -2.89526,10.41908 -1.89615,5.08103 -3.20354,10.54278 -2.20413,15.93746 0.29171,2.26796 1.84241,4.11934 3.36582,5.78559 3.23051,3.44569 7.18512,6.46963 9.17314,10.79975 1.42077,3.09594 0.65351,6.59296 1.67452,9.77625 0.83734,2.09826 2.6086,3.67189 3.8079,5.57469 4.28393,6.9838 11.29056,12.5591 19.44787,14.93505 5.07806,1.45534 10.95051,1.07498 15.29385,-2.02095 1.31814,-0.64284 1.28011,-2.21168 2.07964,-3.24538 -0.0594,-9.0358 -3.20339,-17.76845 -7.47651,-25.74483 -4.67291,-8.78894 -9.71304,-17.77279 -10.67463,-27.74971 0.36195,-2.42739 3.22478,-3.04491 5.05612,-4.2277 2.04203,-1.04403 2.7448,-3.83628 1.28621,-5.57967 -4.12187,-6.49015 -3.26335,-14.34842 -3.40382,-21.59448 -0.27009,-8.07416 -1.91733,-16.05538 -1.95514,-24.13979 0.0107,-42.76699 3.78115,-85.41575 6.05008,-128.10051 1.91776,-5.63131 2.86892,-11.53012 3.22547,-17.43914 0.64287,-10.6146 0.34073,-21.26548 -0.15088,-31.87495 -0.17287,-4.81875 -1.89665,-9.55044 -1.28622,-14.38461 0.2269,-2.12394 1.50733,-3.96421 3.19281,-5.30647 0.49701,12.19857 -0.65875,24.42249 0.0759,36.61593 0.27012,2.2731 3.27843,2.1491 4.84507,3.28052 -0.63206,-2.10853 -1.54443,-4.42277 -0.0696,-6.42843 2.06904,-0.216 4.09972,-0.80135 6.19038,-0.72422 5.34816,0.13885 10.81032,0.14879 15.9586,1.68647 1.65848,0.61198 0.9833,2.76161 1.30203,4.073 0.29173,0.0513 0.8752,0.1594 1.16693,0.21595 2.46339,-9.60662 2.06888,-19.5885 1.26935,-29.36485 -0.91837,-10.07977 -1.59921,-20.19008 -1.61541,-30.31104 -0.17828,-13.70539 0.46474,-27.39573 0.8483,-41.08569 1.07505,-27.14338 0.77775,-54.51869 -4.35973,-81.32264 -0.78872,-3.69764 -1.09707,-7.60114 -3.04186,-10.96449 -1.79893,-3.27593 -4.81324,-5.79507 -8.10857,-7.66188 -8.40581,-4.62846 -18.14023,-6.08909 -27.20511,-9.08216 -3.27912,-1.9491 -7.36912,-1.89767 -10.69146,-3.72849 -2.31754,-1.68168 -3.41873,-4.587649 -6.11443,-5.8579 -0.39435,0.555416 -0.82166,1.131563 -0.83246,1.836118 -0.54562,4.165612 -1.41559,8.300462 -2.78236,12.296372 -2.33374,7.43125 -6.27203,14.28636 -8.77326,21.65074 -1.95559,4.24276 -1.79805,9.00025 -3.00815,13.43844 0.12967,-3.49707 1.69613,-7.3391 -0.44314,-10.56876 -1.7287,-2.19593 -3.47333,-4.69568 -3.25184,-7.57047 1.4964,-0.89997 2.58196,-2.23151 3.47873,-3.66119 -0.86974,-2.05195 -2.44151,-3.70289 -3.88389,-5.39486 -1.05884,-1.20339 -1.79414,-2.65414 -3.03663,-3.70839 1.26951,-1.02854 2.64713,-1.92785 3.95986,-2.89983 6.70412,-4.98331 11.74484,-11.68415 15.78027,-18.734839 -1.20469,-2.607371 -1.96726,-5.400404 -2.12393,-8.249484 -0.45917,-7.354113 1.14607,-14.651158 3.1611,-21.706992 2.93338,-0.036 6.03927,-1.126985 7.67073,-3.569788 2.38237,-3.455917 2.39338,-7.760321 2.51223,-11.745941 0.17827,-3.044504 -4.824,-1.861439 -5.05088,-4.638513 0.17287,-2.221665 0.78802,-4.397251 0.7502,-6.634338 0.2539,-6.880986 -2.40414,-13.90032 -7.60104,-18.749922 -5.36437,-5.102882 -12.90085,-7.891539 -20.45236,-7.973262 z m 46.49156,221.139949 c 3.25752,12.91342 4.96468,26.13997 5.98568,39.36709 -4.28392,-9.6632 -5.72076,-20.23663 -6.13132,-30.64553 -0.13505,-2.91079 -0.0432,-5.82105 0.14564,-8.72156 z m -142.76865,66.79137 c -4.58787,-0.0365 -9.36816,0.9365 -12.73841,4.05493 0.28091,4.75189 -5.40862,7.25083 -5.63012,11.88958 0.0433,3.17821 1.25909,6.2126 1.96679,9.2931 0.75631,2.33479 0.8106,4.97267 2.46366,6.95777 2.23651,2.83364 5.19729,5.10248 8.35756,6.94872 3.12786,1.76911 6.90334,3.22969 10.56063,2.09829 -2.2257,-7.5804 -8.70821,-13.62885 -9.50234,-21.6618 -0.29711,-3.34791 2.25866,-6.11946 5.28929,-7.43086 0.0594,2.2371 -0.5621,5.4051 1.99314,6.63936 -1.29113,0.44227 -3.12857,0.8175 -3.39329,2.36547 -0.29171,2.27822 1.15105,4.30415 1.60485,6.48467 1.85833,-0.7457 3.51189,-1.99491 4.39245,-3.74858 3.33315,-6.40271 1.48565,-14.25589 5.58046,-20.39118 -2.34449,-2.29366 -5.69947,-3.28629 -8.9948,-3.42514 -0.64286,-0.0431 -1.29447,-0.0692 -1.94987,-0.0744 z m 160.88706,21.11338 c -1.41538,1.09025 -2.76063,2.3244 -3.64118,3.86207 -0.24851,0.55027 0.34044,1.03894 0.53491,1.5378 2.20411,3.81077 5.35941,7.51844 5.29458,12.09549 -0.25391,2.48394 -0.95089,5.21501 -3.10095,6.84526 -2.76592,2.20624 -6.57946,2.78673 -9.24813,5.12668 -1.79892,1.46568 -1.79956,4.10978 -0.82718,6.01259 1.9556,1.60968 4.71659,1.50171 7.13679,1.36805 6.2287,-0.60684 12.59228,-2.91615 16.62231,-7.66289 4.10566,-4.62331 5.98525,-10.84102 5.59628,-16.83746 -0.35113,-3.93934 -2.98702,-7.18462 -4.20252,-10.87709 -4.62428,-1.15198 -9.45961,-0.85338 -14.16491,-1.4705 z"
   inkscape:label="man"
   style="fill:none;stroke:#000000;stroke-width:0.527087;stroke-opacity:1" />
	
	
	
	
	
	
	
	
<path
   id="path1677"
   d="m 215.11309,10.264298 c -2.21424,-0.03678 -4.42912,0.09483 -6.62113,0.427419 -6.77177,0.949875 -13.15422,4.408394 -17.7609,9.572354 -5.88631,6.565158 -9.24473,15.030619 -11.57366,23.506019 -2.55415,9.582719 -3.87391,19.45865 -4.8106,29.33 4.70388,1.374952 4.519,8.093172 9.19733,9.5416 1.14143,-2.776155 1.87374,-5.810326 3.69594,-8.229618 0.36853,-0.703223 1.43324,-0.923143 1.96045,-0.2829 1.52532,1.64785 3.01937,3.532314 3.39302,5.8414 0.44531,1.894504 -0.36771,3.762526 -1.22763,5.389379 6.46977,7.976853 12.95429,15.948349 19.48042,23.883219 3.86956,-6.38673 7.62719,-12.852148 11.49167,-19.244125 0.55281,-0.955123 1.21826,-1.868227 1.4486,-2.975536 4.7244,-3.316693 9.69445,-6.26124 14.29089,-9.777349 0.89573,-0.808181 2.17536,-1.532401 2.30333,-2.886363 1.45366,-8.69057 2.37485,-17.511949 2.26735,-26.344209 -0.17404,-8.333711 -1.10075,-16.888223 -4.59669,-24.518706 -2.41083,-5.211191 -6.48957,-9.980916 -11.97153,-11.791448 -3.5862,-0.84951 -7.27649,-1.379839 -10.96686,-1.441136 z m -26.27046,77.923596 c -4.0334,3.285201 -8.65083,5.810323 -13.54414,7.442429 -8.28178,2.728914 -16.99352,3.594329 -25.41868,5.704047 -2.67192,0.60876 -4.02854,3.35383 -5.10855,5.66817 -2.764,6.42872 -4.02823,13.38245 -5.33346,20.24145 -1.80684,10.43287 -3.04045,20.96012 -4.13582,31.49271 -3.24515,32.12257 -4.88825,64.37566 -7.46287,96.55068 -0.9674,13.47669 -1.94504,26.95332 -2.55926,40.45623 -0.1382,1.05484 0.43523,2.14661 1.40263,2.5717 2.0167,0.85017 4.30509,0.53546 6.33715,1.34887 0.62446,0.28339 1.3667,0.74005 1.44859,1.52725 0.84968,8.93721 -1.24907,18.0114 0.60384,26.87514 0.72683,3.65257 3.388,7.17893 7.2269,7.48855 3.73141,-7.3261 1.36696,-16.04867 4.38177,-23.59519 3.27074,0.79769 4.02271,4.63987 6.07524,6.88074 1.21821,1.4694 3.64966,0.87583 4.60166,-0.58835 -5.58427,-13.86502 -6.36761,-29.17331 -5.79433,-43.99346 0.6091,-13.69709 2.54478,-27.33144 5.85135,-40.6192 -0.26105,15.99043 -2.47747,31.94988 -1.4896,47.95606 0.0102,1.29098 1.43335,1.84678 2.46729,2.11967 3.6188,0.74521 7.18135,-0.77669 10.78991,-0.91839 0.73195,-0.0945 1.39659,0.29385 2.03641,0.61398 10.45204,38.43056 23.21243,76.16374 36.85844,113.51315 4.43265,-0.66648 8.36393,-3.16481 12.78635,-3.8365 0.92646,-0.0683 2.61101,-0.1357 2.57523,1.2392 1.79148,35.7751 -3.50138,71.5287 -12.10051,106.123 -5.66622,23.2536 -12.58709,46.16685 -18.27378,69.41519 -0.12284,0.69798 -0.4708,1.47414 -0.0461,2.16167 1.50485,3.26417 4.79131,5.19589 8.04669,6.19299 5.06735,1.37496 10.74846,1.10206 15.37561,-1.57439 0.92645,-0.44082 1.32078,-1.44312 1.74051,-2.31953 2.45689,-5.26372 3.90594,-10.98482 4.62765,-16.75748 1.92457,-14.11689 0.30662,-28.42731 1.77051,-42.58104 0.91111,-10.59559 4.52022,-20.74005 9.18833,-30.16537 4.36093,-8.97922 9.78625,-17.37057 14.09095,-26.376 0.66023,0.0787 0.91083,0.85031 1.3306,1.30688 5.72253,8.30752 7.85177,18.44097 12.07452,27.51984 5.15948,11.49823 11.93192,22.1782 16.69721,33.87582 3.55743,8.83752 6.23897,18.35664 5.56841,28.01804 -0.41972,7.38908 -1.7965,14.67919 -2.34929,22.05767 -0.22524,3.92547 -0.14287,8.21266 2.15535,11.56084 3.17861,4.66016 8.88024,6.82258 14.26492,6.94328 4.2228,0.14694 8.66574,-1.0709 11.72661,-4.18812 -0.66029,-15.68602 -0.72111,-31.59297 -4.50368,-46.90644 -2.31364,-9.77689 -8.84571,-17.60156 -12.9713,-26.54923 -2.60527,-5.49464 -3.59796,-11.58203 -4.62168,-17.54368 -2.79983,-18.44643 -2.29789,-37.40154 -7.09398,-55.51736 -2.72298,-10.10746 -8.63535,-19.04469 -10.64688,-29.38842 -1.1466,-6.44965 -0.96249,-13.04667 -1.74051,-19.53826 -0.53745,-4.79136 -1.87804,-9.54652 -4.37076,-13.66616 6.99703,-1.16502 12.84797,-5.4788 19.00557,-8.74826 4.07434,-2.21456 8.57787,-3.49429 13.1692,-3.88264 -3.27586,-35.48649 -10.25206,-70.47517 -14.09097,-105.89344 -0.10747,-1.47992 -0.56795,-2.89704 -1.16165,-4.23525 -3.73146,-9.02643 -10.80003,-16.56212 -12.33048,-26.51742 1.84269,1.71081 3.19909,3.95144 5.28749,5.38937 1.87845,1.32247 4.25857,1.6326 6.48514,1.29147 2.24193,-0.13644 4.04825,-1.63766 5.86531,-2.82895 8.30739,-5.94066 14.19416,-14.55732 21.26792,-21.84145 3.99761,-3.93594 8.22051,-7.64668 11.93655,-11.87653 2.34941,-2.77089 4.64722,-5.77752 5.60439,-9.37759 0.98276,-4.66541 -0.37365,-9.50954 -2.68723,-13.5452 -4.1306,-7.23164 -10.58984,-12.54827 -16.13836,-18.56763 -13.18023,-15.39217 -26.17172,-30.96733 -39.21374,-46.47496 -8.1538,-4.32429 -17.15669,-6.57574 -25.7916,-9.661514 -5.29771,-1.925995 -10.6883,-4.418731 -14.42484,-8.879468 0.91624,3.867726 0.44558,7.855622 0.62984,11.786322 0.12284,3.95169 0.37866,7.89807 0.55781,11.85499 0.19452,7.25789 -0.25556,14.5368 0.3689,21.77893 0.5784,8.04507 0.80858,16.11102 1.5456,24.14561 1.17726,12.47432 1.40298,25.01166 1.94038,37.52273 -15.88788,4.4135 -31.77063,8.84895 -47.64831,13.29918 -0.31223,-9.09466 0.68542,-18.15259 1.8115,-27.15804 1.20797,-7.65149 1.69961,-15.39806 2.80521,-23.06527 1.06466,-6.96926 0.89011,-14.04369 1.2996,-21.07066 0.14332,-7.69346 0.11783,-15.39219 0.20996,-23.09091 0.18938,-9.54073 -0.54702,-19.065867 -0.83877,-28.596096 z m 78.54842,71.277576 c 4.1716,1.45894 7.85238,4.02049 11.66569,6.22987 3.41923,2.13065 7.02698,3.94613 10.35403,6.22372 1.94504,2.02044 3.90071,4.04583 5.82529,6.09252 0.71147,2.39829 1.77571,4.90731 1.12571,7.45781 -0.98791,2.80239 -3.88501,4.00404 -6.14222,5.51546 -2.46714,1.41168 -4.37123,3.58387 -6.61314,5.31044 -3.40895,2.59249 -6.42372,5.68376 -9.94015,8.12405 -2.45683,-2.26709 -5.33289,-3.96689 -7.9587,-6.0136 -3.70581,-2.10967 -7.48867,-4.19815 -10.65197,-7.13698 -0.5016,-0.73996 -0.81374,-1.59066 -1.19764,-2.38309 -1.63797,-2.86012 -1.27997,-6.68542 0.52687,-9.3776 1.54067,-2.49278 2.30835,-5.35318 3.46002,-8.03487 1.05948,-2.17789 2.67258,-4.02562 3.68093,-6.235 0.77802,-1.59537 1.31982,-3.34244 2.4203,-4.74364 0.76267,-1.08107 2.26776,-1.07112 3.44498,-1.02909 z"
   style="fill:none;stroke:#000000;stroke-width:0.518283;stroke-opacity:1"
   inkscape:label="woman" /></g><defs
   id="defs26" /><sodipodi:namedview
   id="namedview24"
   pagecolor="#ffffff"
   bordercolor="#000000"
   borderopacity="0.25"
   inkscape:showpageshadow="2"
   inkscape:pageopacity="0.0"
   inkscape:pagecheckerboard="0"
   inkscape:deskcolor="#d1d1d1"
   showgrid="false"
   inkscape:zoom="0.87790814"
   inkscape:cx="171.43024"
   inkscape:cy="288.18505"
   inkscape:window-width="1920"
   inkscape:window-height="1009"
   inkscape:window-x="-8"
   inkscape:window-y="-8"
   inkscape:window-maximized="1"
   inkscape:current-layer="_x23_000000ff"></sodipodi:namedview>

</svg>
