<?xml version="1.0" encoding="UTF-8"?>
<svg width="48px" height="48px" viewBox="0 0 48 48" version="1.1" xmlns="http://www.w3.org/2000/svg" xmlns:xlink="http://www.w3.org/1999/xlink">
    <title>Group</title>
    <g id="Hi-Fi" stroke="none" stroke-width="1" fill="none" fill-rule="evenodd">
        <g id="1280-rework-italia2026-desktop_B" transform="translate(-1152.000000, -210.000000)">
            <g id="Group" transform="translate(1152.000000, 210.000000)">
                <rect id="Rectangle-Copy-12" x="7.27595761e-12" y="0" width="48" height="48"></rect>
                <path d="M21.0382979,3 L21.3075266,3.00382479 C25.1112303,3.11203032 28.3426999,5.50574025 29.6770589,8.86007811 C30.5726385,8.63463226 31.5106339,8.51489362 32.4765957,8.51489362 C38.7937932,8.51489362 43.9148936,13.635994 43.9148936,19.9531915 C43.9148936,20.2916616 43.9001923,20.626698 43.8713935,20.957697 C46.3606802,22.6245717 48,25.4633972 48,28.6851064 C48,33.580523 44.2149613,37.5918964 39.4117547,37.9523558 L39.4120492,37.952135 L39.3438847,38.0465724 C36.4476285,42.0284884 31.7516383,44.6170213 26.4510638,44.6170213 C23.1647077,44.6170213 20.1107537,43.6219892 17.5740395,41.9167628 L17.4589556,41.837473 C16.2272287,42.4403175 14.8424955,42.7787234 13.3787234,42.7787234 C8.24600045,42.7787234 4.08510638,38.6178293 4.08510638,33.4851064 C4.08510638,32.4356608 4.25905096,31.4268421 4.57968176,30.4859087 C1.79929086,28.4006621 -3.35731443e-13,25.076412 -3.35731443e-13,21.3319149 C-3.35731443e-13,15.0147174 5.12110039,9.89361702 11.4382979,9.89361702 L11.4382979,9.89361702 L11.7335255,9.89735285 C11.8316327,9.89983842 11.9294329,9.90355928 12.0269112,9.90850046 L12.0539431,9.90990242 L12.0539431,9.90990242 L12.1116614,9.69913901 C13.2345553,5.82899815 16.8060526,3 21.0382979,3 L21.0382979,3 Z" id="cloud-logo" fill="#0066CC"></path>
                <path d="M30.8883345,14.8978723 L30.8883345,18.853682 L34.2902421,18.853682 L34.2902421,22.1248324 L30.863683,22.1248324 L30.863683,27.9824737 C30.863683,28.565702 30.8883345,28.9460684 30.912986,29.1996459 C30.9376376,29.4278657 31.0362436,29.6307277 31.2088041,29.8082321 C31.3813646,29.9857363 31.6525312,30.0618096 32.0223037,30.0618096 L34.1423331,30.0110941 L34.3148936,33.0540246 C33.0823184,33.3329599 32.1209098,33.4851064 31.4799706,33.4851064 C29.8036684,33.4851064 28.6696992,33.1047401 28.0780631,32.3186497 C27.4617755,31.5579171 27.1659574,30.1378829 27.1659574,28.058547 L27.1659574,14.8978723 L30.8883345,14.8978723 Z M23.2851064,19.0851064 L23.2851064,33.0765957 L19.4553191,33.0765957 L19.4553191,19.0851064 L23.2851064,19.0851064 Z M13.787234,18.2170213 C14.4658156,18.2170213 15.04,18.4455664 15.483688,18.9026567 C15.9273759,19.359747 16.1361702,19.9184128 16.1361702,20.6040483 C16.1361702,21.2896837 15.9273759,21.8229557 15.483688,22.280046 C15.0660992,22.6863485 14.5180142,22.9148936 13.8133333,22.9148936 C13.1347518,22.9148936 12.5605674,22.6863485 12.1168794,22.2292582 C11.6731915,21.7721679 11.4382979,21.213502 11.4382979,20.5532605 C11.4382979,19.893019 11.6731915,19.3343531 12.0907801,18.8772628 C12.5344681,18.4201725 13.1086525,18.2170213 13.787234,18.2170213 Z" id="Combined-Shape-Copy-2" fill="#FFFFFF"></path>
            </g>
        </g>
    </g>
</svg>