<?xml version="1.0" encoding="UTF-8" standalone="no"?>
<svg
   width="60"
   height="60"
   viewBox="0 0 60 60"
   fill="none"
   version="1.1"
   id="svg22"
   sodipodi:docname="1.3.1 Piattaforma Digitale Nazionale Dati-logo.svg"
   inkscape:version="1.2.2 (732a01da63, 2022-12-09)"
   xmlns:inkscape="http://www.inkscape.org/namespaces/inkscape"
   xmlns:sodipodi="http://sodipodi.sourceforge.net/DTD/sodipodi-0.dtd"
   xmlns="http://www.w3.org/2000/svg"
   xmlns:svg="http://www.w3.org/2000/svg">
  <sodipodi:namedview
     id="namedview24"
     pagecolor="#ffffff"
     bordercolor="#000000"
     borderopacity="0.25"
     inkscape:showpageshadow="2"
     inkscape:pageopacity="0.0"
     inkscape:pagecheckerboard="0"
     inkscape:deskcolor="#d1d1d1"
     showgrid="false"
     inkscape:zoom="13.816667"
     inkscape:cx="17.044632"
     inkscape:cy="30.036188"
     inkscape:window-width="1920"
     inkscape:window-height="1009"
     inkscape:window-x="-8"
     inkscape:window-y="-8"
     inkscape:window-maximized="1"
     inkscape:current-layer="svg22" />
  <g
     clip-path="url(#clip0_414_9771)"
     id="g12">
    <path
       d="M26.6029 42.8115H18.011C17.3718 42.8115 16.8512 43.456 16.8512 44.2473C16.8512 45.0386 17.3718 45.6832 18.011 45.6832H26.6029C27.2421 45.6832 27.7627 45.0386 27.7627 44.2473C27.7627 43.456 27.2421 42.8115 26.6029 42.8115Z"
       fill="#0073E6"
       id="path2"
       style="fill:#0066cc;fill-opacity:1" />
    <path
       d="M26.6029 47.8115H18.011C17.3718 47.8115 16.8512 48.456 16.8512 49.2473C16.8512 50.0386 17.3718 50.6832 18.011 50.6832H26.6029C27.2421 50.6832 27.7627 50.0386 27.7627 49.2473C27.7627 48.456 27.2421 47.8115 26.6029 47.8115Z"
       fill="#0073E6"
       id="path4"
       style="fill:#0066cc;fill-opacity:1" />
    <path
       d="M59.8067 37.2485C58.4999 37.2485 56.9329 36.0855 55.1183 34.7374C53.1995 33.3128 51.0305 31.7015 48.6438 31.1128V23.2301C48.6438 22.434 48.14 21.7671 47.5201 21.7448C47.2043 21.7352 46.9041 21.8772 46.6773 22.15C46.4505 22.4228 46.3254 22.7882 46.3254 23.1806V33.7563C46.3254 35.098 45.444 36.1892 44.3602 36.1892H41.2711C40.3484 36.1892 39.445 36.6598 38.7942 37.4815C38.155 38.2855 37.8122 39.3353 37.8264 40.4377C37.8573 42.7015 39.3702 44.5425 41.1989 44.5425H45.8486C46.0123 44.5425 46.1721 44.5712 46.3254 44.6287V54.9523C46.3254 56.1536 45.5368 57.1299 44.5663 57.1299H15.3267C14.3563 57.1299 13.5676 56.1536 13.5676 54.9523V34.605C15.0329 34.7326 17.8229 34.7135 20.0846 34.6975C21.8463 34.6975 23.2794 32.9235 23.2794 30.7426C23.2794 30.0774 23.144 29.4265 22.8876 28.8474C23.6789 28.0991 24.1467 26.9393 24.1467 25.7029C24.1467 25.0616 24.0204 24.4314 23.7807 23.8666C24.6119 23.1216 25.1029 21.9394 25.1029 20.6631C25.1029 19.7729 24.8619 18.913 24.4212 18.219C24.9238 17.5027 25.1995 16.5934 25.2021 15.6234C25.2021 13.4425 23.7691 11.6669 22.0074 11.6669H14.2442C13.8704 11.6669 13.5676 11.2904 13.5676 10.8277C13.5676 10.8229 13.5676 10.8166 13.5676 10.8102V10.7352V5.05092C13.5676 3.84961 14.3563 2.87325 15.3267 2.87325H37.1021V9.24034C37.1021 12.0243 38.9321 14.2897 41.1809 14.2897H46.3254V17.5362C46.3254 18.3323 46.8293 18.9992 47.4492 19.0215C47.7649 19.0327 48.0652 18.8891 48.292 18.6163C48.5188 18.3435 48.6438 17.9781 48.6438 17.5857V13.7999C48.6438 12.8203 48.323 11.8599 47.7636 11.1675L39.6228 1.08963C39.0635 0.397245 38.2877 0 37.4965 0H15.3267C13.0779 0 11.2479 2.26542 11.2479 5.04932V7.98001C8.81739 8.55434 6.66008 10.2008 4.75149 11.6573C2.99626 12.9974 1.48073 14.1541 0.193307 14.1541H0V17.0257H0.193307C2.60578 17.0257 4.81206 15.3139 6.94618 13.6595C8.43077 12.5076 9.83676 11.418 11.2505 10.9298C11.2943 12.9288 12.6204 14.5385 14.2455 14.5401H22.01C22.4868 14.5401 22.8798 15.0219 22.885 15.6282V15.6441C22.8798 16.2328 22.4894 16.713 22.0125 16.7162C21.9726 16.7098 21.9262 16.7098 20.5962 16.7098C19.5459 16.7098 17.6863 16.7098 14.3821 16.7098C13.7429 16.7098 13.2222 17.3544 13.2222 18.1457C13.2222 18.937 13.7429 19.5815 14.3821 19.5815C14.9066 19.5815 15.7352 19.5815 16.6566 19.5815C18.8423 19.5815 21.836 19.5815 21.9533 19.5863C22.1943 19.6006 22.4133 19.7314 22.5718 19.9548C22.7291 20.1782 22.8051 20.4653 22.7832 20.7636C22.7445 21.3172 22.3463 21.7496 21.8772 21.7496H14.4233C13.7802 21.7496 13.2415 22.3734 13.2235 23.1407C13.2145 23.5332 13.3305 23.9033 13.5508 24.1841C13.7712 24.4649 14.0663 24.6196 14.3834 24.6196H20.9171C21.3978 24.6196 21.7973 25.0632 21.8283 25.6295C21.845 25.9326 21.7612 26.2214 21.5937 26.4431C21.4262 26.6649 21.1994 26.7877 20.9545 26.7877H14.4233C13.7802 26.7877 13.2415 27.4115 13.2235 28.1789C13.2145 28.5714 13.3305 28.9415 13.5508 29.2223C13.7712 29.503 14.0663 29.6578 14.3834 29.6578H20.0498C20.5305 29.6578 20.93 30.1013 20.961 30.6677C20.9777 30.9708 20.8939 31.2595 20.7264 31.4813C20.5589 31.7031 20.3321 31.8259 20.0859 31.8259L19.1877 31.8339C14.5006 31.8753 12.7467 31.8897 10.3961 30.9038C7.8573 29.7439 0.538683 28.1821 0.228103 28.1151L0.195885 28.3512L0.163667 28.5873C0.166244 28.5873 0.177843 28.5905 0.195885 28.5937V30.5049V30.7442V30.9835C1.0052 30.9835 6.84437 32.3061 9.56613 33.5856C9.58418 33.5952 9.60351 33.6031 9.62155 33.6111C10.1744 33.844 10.7092 34.0323 11.2518 34.1838V54.9539C11.2518 57.7378 13.0817 60.0032 15.3306 60.0032H44.5689C46.0497 60.0032 47.4041 59.0157 48.1284 57.4155C49.6413 57.0534 50.537 56.5907 51.5718 56.0547C51.7161 55.9797 51.8631 55.9047 52.0164 55.8265C52.5731 55.5426 53.1389 55.2011 53.7472 54.7848C55.5797 53.5276 59.2629 53.2181 59.2989 53.2149L59.4716 53.2006L59.5644 50.6847L59.3518 50.6974C55.3709 50.9431 52.336 52.5848 52.3089 52.6007C52.2845 52.6135 49.9815 53.8355 48.649 54.3141V47.6758C49.4325 48.4225 50.3926 48.8325 51.3965 48.8404H51.4056C52.0048 48.8404 52.5216 48.2805 52.5834 47.561C52.6182 47.1541 52.5126 46.7473 52.2935 46.4442C52.0731 46.1411 51.7587 45.9688 51.4313 45.9688C50.5666 45.9688 49.7908 45.3689 49.4093 44.4021C48.7534 42.743 47.3577 41.6709 45.8538 41.6709H41.2479C40.6706 41.6709 40.1899 41.138 40.1525 40.4568C40.1332 40.0915 40.2324 39.7437 40.4347 39.4773C40.6371 39.2108 40.9103 39.0625 41.2041 39.0625H44.3653C46.6438 39.0625 48.5124 36.8497 48.6438 34.069C50.0047 34.5572 51.403 35.6117 52.8798 36.7268C55.0926 38.3956 57.3813 40.1234 59.8131 40.1234H60.0064V37.2517H59.8131L59.8067 37.2485ZM39.4218 9.24034V4.90255L44.6849 11.418H41.1809C40.2105 11.418 39.4218 10.4416 39.4218 9.24034Z"
       fill="#0073E6"
       id="path6"
       style="fill:#0066cc;fill-opacity:1" />
    <g
       clip-path="url(#clip1_414_9771)"
       id="g10">
      <path
         d="M165.696 -35.5871C162.589 -45.5204 156.268 -53.1871 148.554 -56.9204C144.161 -71.1871 133.071 -80.7204 120.804 -80.7204H37.9821C35.8928 -83.4538 33.75 -85.7871 31.5535 -87.7871L21.5357 -101.12C13.1785 -112.454 3.58925 -117.987 -7.71432 -117.987H-50.5715C-67.0179 -118.054 -80.3572 -101.454 -80.3572 -81.0538V110.946C-80.3572 126.213 -72.6965 140.013 -61.2322 145.48C-58.2322 155.08 -52.125 162.946 -44.0893 166.813C-39.8036 180.68 -28.9822 190.613 -16.3393 190.613H155.089C171.482 190.613 184.821 174.013 184.821 153.613V-1.05377C184.821 -16.7871 176.893 -30.2538 165.696 -35.5871ZM155.625 -38.0538C155.464 -38.0538 155.304 -38.0538 155.089 -38.0538H71.1428L62.625 -49.3871H137.946C145.071 -49.3871 151.607 -45.0538 155.625 -38.0538ZM138.429 -59.3871C138.268 -59.3871 138.107 -59.3871 137.946 -59.3871H56.5178C56.0892 -59.3871 55.6607 -59.3204 55.2857 -59.1204C51.8035 -63.7204 48.1607 -67.3204 44.1964 -69.9204C44.1964 -70.1871 44.1964 -70.3871 44.1964 -70.6538H120.75C127.929 -70.7204 134.464 -66.3871 138.429 -59.3871ZM-72.3215 110.946V-81.0538C-72.3215 -95.9204 -62.5715 -108.054 -50.625 -108.054H-7.76789C0.642822 -108.054 7.6071 -104.32 14.0357 -96.3871C12.5357 -96.5871 10.9821 -96.7204 9.37496 -96.7204H-33.4822C-49.875 -96.7204 -63.2143 -80.1204 -63.2143 -59.7204V132.28C-63.2143 132.48 -63.2143 132.68 -63.2143 132.88C-68.8393 127.946 -72.3215 119.813 -72.3215 110.946ZM-55.1786 132.28V-59.7204C-55.1786 -74.5871 -45.4286 -86.7204 -33.4822 -86.7204H9.37496C15.6428 -86.7204 21.1071 -84.6538 26.1428 -80.3204L30 -75.1871C28.875 -75.3204 27.6964 -75.3871 26.5178 -75.3871H-16.3393C-32.7322 -75.3871 -46.0715 -58.7871 -46.0715 -38.3871V153.613C-46.0715 153.813 -46.0715 154.013 -46.0715 154.28C-51.6965 149.28 -55.1786 141.146 -55.1786 132.28ZM-38.0358 5.67957V-38.3871C-38.0358 -53.2538 -28.2858 -65.3871 -16.3393 -65.3871H26.5178C35.5714 -65.3871 43.0178 -61.0538 49.875 -51.7204L66.4285 -29.6538C67.1785 -28.6538 68.25 -28.0538 69.375 -28.0538H155.089C167.036 -28.0538 176.786 -15.9204 176.786 -1.05377V5.67957V30.9462V153.613C176.786 168.48 167.036 180.613 155.089 180.613H-16.3393C-28.2858 180.613 -38.0358 168.48 -38.0358 153.613V30.9462V5.67957Z"
         fill="black"
         id="path8" />
    </g>
  </g>
  <defs
     id="defs20">
    <clipPath
       id="clip0_414_9771">
      <rect
         width="60"
         height="60"
         fill="white"
         id="rect14" />
    </clipPath>
    <clipPath
       id="clip1_414_9771">
      <rect
         width="265.179"
         height="330"
         fill="white"
         transform="translate(-80.3572 -128.72)"
         id="rect17" />
    </clipPath>
  </defs>
</svg>
