<?xml version="1.0" encoding="UTF-8" standalone="no"?>
<svg
   width="48px"
   height="48px"
   viewBox="0 0 48 48"
   version="1.1"
   id="svg30"
   sodipodi:docname="1.4.1 Esperienza del cittadino nei servizi pubblici-logo.svg"
   inkscape:version="1.2.2 (732a01da63, 2022-12-09)"
   xmlns:inkscape="http://www.inkscape.org/namespaces/inkscape"
   xmlns:sodipodi="http://sodipodi.sourceforge.net/DTD/sodipodi-0.dtd"
   xmlns="http://www.w3.org/2000/svg"
   xmlns:svg="http://www.w3.org/2000/svg">
  <defs
     id="defs34" />
  <sodipodi:namedview
     id="namedview32"
     pagecolor="#ffffff"
     bordercolor="#000000"
     borderopacity="0.25"
     inkscape:showpageshadow="2"
     inkscape:pageopacity="0.0"
     inkscape:pagecheckerboard="0"
     inkscape:deskcolor="#d1d1d1"
     showgrid="false"
     inkscape:zoom="17.270833"
     inkscape:cx="13.693607"
     inkscape:cy="24.028951"
     inkscape:window-width="1920"
     inkscape:window-height="1009"
     inkscape:window-x="-8"
     inkscape:window-y="-8"
     inkscape:window-maximized="1"
     inkscape:current-layer="Hi-Fi" />
  <title
     id="title2">Group 4</title>
  <g
     id="Hi-Fi"
     stroke="none"
     stroke-width="1"
     fill="none"
     fill-rule="evenodd">
    <g
       id="1280-rework-italia2026-desktop_B"
       transform="translate(-1152.000000, -295.000000)">
      <g
         id="Group-4"
         transform="translate(1152.000000, 295.000000)">
        <rect
           id="Rectangle-Copy-14"
           x="0"
           y="0"
           width="48"
           height="48" />
        <path
           d="M35.6923077,14.2307692 C33.99297,14.2307692 32.6153846,15.6083546 32.6153846,17.3076923 C32.6153846,19.00703 33.99297,20.3846154 35.6923077,20.3846154 C37.3916454,20.3846154 38.7692308,19.00703 38.7692308,17.3076923 C38.7692308,15.6083546 37.3916454,14.2307692 35.6923077,14.2307692 Z"
           id="Path"
           fill="#0066CC"
           fill-rule="nonzero"
           style="fill:#0066cc;fill-opacity:1" />
        <path
           d="M45.6923077,15 L44.6207692,15 C44.4007692,14.1838462 44.0446154,13.4015385 43.5930769,12.67 L44.3946154,11.8676923 C45.2946154,10.9676923 45.2946154,9.50461538 44.3946154,8.60461538 C43.4946154,7.70461538 42.0315385,7.70461538 41.1315385,8.60461538 L40.3192308,9.41692308 C39.5938462,8.97307692 38.8146154,8.62 38,8.38923077 L38,7.30769231 C38,6.03538462 36.9646154,5 35.6923077,5 C34.42,5 33.3846154,6.03538462 33.3846154,7.30769231 L33.3846154,8.38923077 C32.57,8.62 31.7907692,8.97307692 31.0653846,9.41692308 L30.2530769,8.60461538 C29.3530769,7.70461538 27.89,7.70461538 26.99,8.60461538 C26.5023077,9.09230769 26.2884615,9.74461538 26.3292308,10.3838462 L10.3076923,10.3838462 C9.03538462,10.3838462 8,11.4192308 8,12.6915385 L8,38.8453846 C8,39.8469231 8.64461538,40.6930769 9.53846154,41.0115385 L9.53846154,41.9230769 C9.53846154,42.7715385 10.2284615,43.4615385 11.0769231,43.4615385 L33.3846154,43.4615385 C34.2330769,43.4615385 34.9230769,42.7715385 34.9230769,41.9230769 L34.9230769,41.0123077 C35.8169231,40.6938462 36.4615385,39.8476923 36.4615385,38.8461538 L36.4615385,29.4738462 C37.3553846,29.1553846 38,28.3092308 38,27.3076923 L38,26.2261538 C38.8146154,25.9953846 39.5938462,25.6423077 40.3192308,25.1984615 L41.1315385,26.0107692 C41.5815385,26.4607692 42.1723077,26.6853846 42.7630769,26.6853846 C43.3538462,26.6853846 43.9446154,26.4607692 44.3946154,26.0107692 C45.2946154,25.1107692 45.2946154,23.6476923 44.3946154,22.7476923 L43.5930769,21.9453846 C44.0453846,21.2138462 44.4015385,20.4315385 44.6207692,19.6153846 L45.6923077,19.6153846 C46.9646154,19.6153846 48,18.58 48,17.3076923 C48,16.0353846 46.9646154,15 45.6923077,15 Z M42.2192308,9.69307692 C42.5107692,9.40307692 43.0153846,9.40307692 43.3069231,9.69307692 C43.4515385,9.83846154 43.5323077,10.0315385 43.5323077,10.2369231 C43.5323077,10.4423077 43.4523077,10.6353846 43.3069231,10.7807692 L42.6638462,11.4238462 C42.3284615,11.0361538 41.9646154,10.6738462 41.5723077,10.34 L42.2192308,9.69307692 Z M28.0776923,9.69307692 C28.3692308,9.40307692 28.8738462,9.40307692 29.1653846,9.69307692 L29.8130769,10.34 C29.4207692,10.6738462 29.0569231,11.0361538 28.7215385,11.4238462 L28.0784615,10.7807692 C27.9338462,10.6353846 27.8530769,10.4423077 27.8530769,10.2369231 C27.8530769,10.0315385 27.9323077,9.83846154 28.0776923,9.69307692 Z M11.0769231,41.9230769 L11.0769231,41.1538462 L33.3846154,41.1538462 L33.3846154,41.9230769 L11.0769231,41.9230769 Z M34.1538462,39.6153846 L10.3076923,39.6153846 C9.88307692,39.6153846 9.53846154,39.2707692 9.53846154,38.8461538 L9.53846154,12.6923077 C9.53846154,12.2676923 9.88307692,11.9230769 10.3076923,11.9230769 L27.0446154,11.9230769 L27.7915385,12.67 C27.3392308,13.4015385 26.9830769,14.1830769 26.7630769,15 L25.6923077,15 C24.42,15 23.3846154,16.0353846 23.3846154,17.3076923 C23.3846154,18.58 24.42,19.6153846 25.6923077,19.6153846 L26.7638462,19.6153846 C26.9838462,20.4315385 27.34,21.2138462 27.7923077,21.9453846 L26.99,22.7476923 C26.09,23.6476923 26.09,25.1107692 26.99,26.0107692 C27.44,26.4607692 28.0307692,26.6853846 28.6215385,26.6853846 C29.2123077,26.6853846 29.8030769,26.4607692 30.2530769,26.0107692 L31.0653846,25.1984615 C31.7907692,25.6423077 32.57,25.9953846 33.3846154,26.2261538 L33.3846154,27.3076923 C33.3846154,28.3092308 34.0292308,29.1553846 34.9230769,29.4738462 L34.9230769,38.8461538 C34.9230769,39.2707692 34.5784615,39.6153846 34.1538462,39.6153846 Z M28.0776923,23.8346154 L28.7207692,23.1915385 C29.0561538,23.5792308 29.42,23.9415385 29.8123077,24.2753846 L29.1646154,24.9223077 C28.8730769,25.2123077 28.3684615,25.2123077 28.0769231,24.9223077 C27.9323077,24.7769231 27.8515385,24.5838462 27.8515385,24.3784615 C27.8515385,24.1730769 27.9323077,23.9807692 28.0776923,23.8346154 Z M43.3069231,23.8346154 C43.4515385,23.98 43.5323077,24.1730769 43.5323077,24.3784615 C43.5323077,24.5838462 43.4523077,24.7769231 43.3069231,24.9223077 C43.0153846,25.2123077 42.5107692,25.2123077 42.2192308,24.9223077 L41.5715385,24.2753846 C41.9638462,23.9415385 42.3276923,23.5792308 42.6630769,23.1915385 L43.3069231,23.8346154 Z M45.6923077,18.0769231 L43.3669231,18.0769231 L43.2515385,18.7069231 C42.7184615,21.6061538 40.0630769,24.2553846 37.0769231,24.8692308 L36.4615385,24.9953846 L36.4615385,27.3076923 C36.4615385,27.7323077 36.1169231,28.0769231 35.6923077,28.0769231 C35.2676923,28.0769231 34.9230769,27.7323077 34.9230769,27.3076923 L34.9230769,24.9953846 L34.3084615,24.8692308 C31.3215385,24.2553846 28.6669231,21.6061538 28.1338462,18.7069231 L28.0176923,18.0769231 L25.6923077,18.0769231 C25.2676923,18.0769231 24.9230769,17.7323077 24.9230769,17.3076923 C24.9230769,16.8830769 25.2676923,16.5384615 25.6923077,16.5384615 L28.0176923,16.5384615 L28.1330769,15.9084615 C28.6661538,13.0092308 31.3215385,10.36 34.3076923,9.74615385 L34.9230769,9.62 L34.9230769,7.30769231 C34.9230769,6.88307692 35.2676923,6.53846154 35.6923077,6.53846154 C36.1169231,6.53846154 36.4615385,6.88307692 36.4615385,7.30769231 L36.4615385,9.62 L37.0761538,9.74615385 C40.0630769,10.36 42.7176923,13.0092308 43.2507692,15.9084615 L43.3669231,16.5384615 L45.6923077,16.5384615 C46.1169231,16.5384615 46.4615385,16.8830769 46.4615385,17.3076923 C46.4615385,17.7323077 46.1169231,18.0769231 45.6923077,18.0769231 Z"
           id="Shape"
           fill="#0066CC"
           fill-rule="nonzero"
           style="fill:#0066cc;fill-opacity:1" />
        <path
           d="M35.6923077,11.1538462 C32.2992308,11.1538462 29.5384615,13.9146154 29.5384615,17.3076923 C29.5384615,20.7007692 32.2992308,23.4615385 35.6923077,23.4615385 C39.0853846,23.4615385 41.8461538,20.7007692 41.8461538,17.3076923 C41.8461538,13.9146154 39.0853846,11.1538462 35.6923077,11.1538462 Z M35.6923077,21.9230769 C33.1469231,21.9230769 31.0769231,19.8530769 31.0769231,17.3076923 C31.0769231,14.7623077 33.1469231,12.6923077 35.6923077,12.6923077 C38.2376923,12.6923077 40.3076923,14.7623077 40.3076923,17.3076923 C40.3076923,19.8530769 38.2376923,21.9230769 35.6923077,21.9230769 Z"
           id="path7"
           fill="#0066CC"
           fill-rule="nonzero"
           style="fill:#0066cc;fill-opacity:1" />
        <path
           d="M14.9230769,23.4615385 C13.6507692,23.4615385 12.6153846,24.4969231 12.6153846,25.7692308 C12.6153846,27.0415385 13.6507692,28.0769231 14.9230769,28.0769231 C16.1953846,28.0769231 17.2307692,27.0415385 17.2307692,25.7692308 C17.2307692,24.4969231 16.1953846,23.4615385 14.9230769,23.4615385 Z M14.9230769,26.5384615 C14.4984615,26.5384615 14.1538462,26.1938462 14.1538462,25.7692308 C14.1538462,25.3446154 14.4984615,25 14.9230769,25 C15.3476923,25 15.6923077,25.3446154 15.6923077,25.7692308 C15.6923077,26.1938462 15.3476923,26.5384615 14.9230769,26.5384615 Z"
           id="path9"
           fill="#0066CC"
           fill-rule="nonzero"
           style="fill:#0066cc;fill-opacity:1" />
        <path
           d="M14.9230769,17.3076923 C13.6507692,17.3076923 12.6153846,18.3430769 12.6153846,19.6153846 C12.6153846,20.8876923 13.6507692,21.9230769 14.9230769,21.9230769 C16.1953846,21.9230769 17.2307692,20.8876923 17.2307692,19.6153846 C17.2307692,18.3430769 16.1953846,17.3076923 14.9230769,17.3076923 Z M14.9230769,20.3846154 C14.4984615,20.3846154 14.1538462,20.04 14.1538462,19.6153846 C14.1538462,19.1907692 14.4984615,18.8461538 14.9230769,18.8461538 C15.3476923,18.8461538 15.6923077,19.1907692 15.6923077,19.6153846 C15.6923077,20.04 15.3476923,20.3846154 14.9230769,20.3846154 Z"
           id="path11"
           fill="#0066CC"
           fill-rule="nonzero"
           style="fill:#0066cc;fill-opacity:1" />
        <path
           d="M14.9230769,29.6153846 C13.6507692,29.6153846 12.6153846,30.6507692 12.6153846,31.9230769 C12.6153846,33.1953846 13.6507692,34.2307692 14.9230769,34.2307692 C16.1953846,34.2307692 17.2307692,33.1953846 17.2307692,31.9230769 C17.2307692,30.6507692 16.1953846,29.6153846 14.9230769,29.6153846 Z M14.9230769,32.6923077 C14.4984615,32.6923077 14.1538462,32.3476923 14.1538462,31.9230769 C14.1538462,31.4984615 14.4984615,31.1538462 14.9230769,31.1538462 C15.3476923,31.1538462 15.6923077,31.4984615 15.6923077,31.9230769 C15.6923077,32.3476923 15.3476923,32.6923077 14.9230769,32.6923077 Z"
           id="path13"
           fill="#0066CC"
           fill-rule="nonzero"
           style="fill:#0066cc;fill-opacity:1" />
        <polygon
           id="polygon15"
           fill="#0066CC"
           fill-rule="nonzero"
           points="18.7692308 20.3846154 22.6153846 20.3846154 22.6153846 21.9230769 18.7692308 21.9230769"
           style="fill:#0066cc;fill-opacity:1" />
        <polygon
           id="polygon17"
           fill="#0066CC"
           fill-rule="nonzero"
           points="18.7692308 26.5384615 24.9230769 26.5384615 24.9230769 28.0769231 18.7692308 28.0769231"
           style="fill:#0066cc;fill-opacity:1" />
        <polygon
           id="polygon19"
           fill="#0066CC"
           fill-rule="nonzero"
           points="18.7692308 32.6923077 31.8461538 32.6923077 31.8461538 34.2307692 18.7692308 34.2307692"
           style="fill:#0066cc;fill-opacity:1" />
        <polygon
           id="polygon21"
           fill="#0066CC"
           fill-rule="nonzero"
           points="18.7692308 29.6153846 31.8461538 29.6153846 31.8461538 31.1538462 18.7692308 31.1538462"
           style="fill:#0066cc;fill-opacity:1" />
        <polygon
           id="polygon23"
           fill="#0066CC"
           fill-rule="nonzero"
           points="18.7692308 23.4615385 24.9230769 23.4615385 24.9230769 25 18.7692308 25"
           style="fill:#0066cc;fill-opacity:1" />
        <polygon
           id="polygon25"
           fill="#0066CC"
           fill-rule="nonzero"
           points="18.7692308 18.0769231 22.6153846 18.0769231 22.6153846 19.6153846 18.7692308 19.6153846"
           style="fill:#0066cc;fill-opacity:1" />
      </g>
    </g>
  </g>
</svg>
