<?xml version="1.0" encoding="UTF-8" standalone="no"?>
<!-- Uploaded to: SVG Repo, www.svgrepo.com, Transformed by: SVG Repo Mixer Tools -->

<svg
   fill="#0066cc"
   height="32"
   width="32"
   version="1.1"
   id="Layer_1"
   viewBox="0 0 157.4825 157.4825"
   xml:space="preserve"
   stroke="#0066cc"
   sodipodi:docname="euro-svgrepo-com.svg"
   inkscape:version="1.2.2 (732a01da63, 2022-12-09)"
   xmlns:inkscape="http://www.inkscape.org/namespaces/inkscape"
   xmlns:sodipodi="http://sodipodi.sourceforge.net/DTD/sodipodi-0.dtd"
   xmlns="http://www.w3.org/2000/svg"
   xmlns:svg="http://www.w3.org/2000/svg"><defs
   id="defs14" /><sodipodi:namedview
   id="namedview12"
   pagecolor="#ffffff"
   bordercolor="#000000"
   borderopacity="0.25"
   inkscape:showpageshadow="2"
   inkscape:pageopacity="0.0"
   inkscape:pagecheckerboard="0"
   inkscape:deskcolor="#d1d1d1"
   showgrid="true"
   inkscape:zoom="12.953125"
   inkscape:cx="19.72497"
   inkscape:cy="13.510253"
   inkscape:window-width="1920"
   inkscape:window-height="1009"
   inkscape:window-x="-8"
   inkscape:window-y="-8"
   inkscape:window-maximized="1"
   inkscape:current-layer="Layer_1"><sodipodi:guide
     position="0,157.4825"
     orientation="0,32"
     id="guide299"
     inkscape:locked="false" /><sodipodi:guide
     position="157.4825,157.4825"
     orientation="32,0"
     id="guide301"
     inkscape:locked="false" /><sodipodi:guide
     position="157.4825,0"
     orientation="0,-32"
     id="guide303"
     inkscape:locked="false" /><sodipodi:guide
     position="0,0"
     orientation="-32,0"
     id="guide305"
     inkscape:locked="false" /></sodipodi:namedview>

<g
   id="SVGRepo_bgCarrier"
   stroke-width="0" />

<g
   id="SVGRepo_tracerCarrier"
   stroke-linecap="round"
   stroke-linejoin="round" />

<g
   id="SVGRepo_iconCarrier"
   transform="matrix(0.49841597,0,0,0.49841597,0.24970621,0.249457)"> <g
   id="XMLID_93_"> <path
   id="XMLID_102_"
   d="M 104.982,15.004 C 44.896,15.004 0,38.758 0,59.995 c 0,21.238 44.896,44.992 104.982,44.992 60.086,0 104.983,-23.754 104.983,-44.992 0.001,-21.237 -44.897,-44.991 -104.983,-44.991 z" /> <path
   id="XMLID_103_"
   d="m 0,239.97 c 0,21.237 44.896,44.991 104.982,44.991 8.769,0 17.211,-0.51 25.241,-1.439 -6.77,-8.698 -12.367,-18.35 -16.559,-28.716 -2.881,0.097 -5.771,0.164 -8.683,0.164 -34.333,0 -66.847,-6.803 -91.55,-19.155 C 8.567,233.383 4.091,230.77 0,228.004 Z" /> <path
   id="XMLID_104_"
   d="m 104.982,194.977 c -34.333,0 -66.846,-6.803 -91.55,-19.155 -4.865,-2.432 -9.342,-5.045 -13.433,-7.81 v 11.965 c 0,21.238 44.896,44.992 104.982,44.992 0.308,0 0.612,-0.005 0.919,-0.006 -0.616,-4.916 -0.937,-9.923 -0.937,-15.003 0,-5.078 0.319,-10.082 0.935,-14.994 -0.305,0.001 -0.608,0.011 -0.916,0.011 z" /> <path
   id="XMLID_105_"
   d="m 104.982,134.987 c -34.333,0 -66.846,-6.803 -91.55,-19.155 -4.865,-2.433 -9.342,-5.045 -13.433,-7.811 v 11.966 c 0,21.237 44.896,44.99 104.982,44.99 2.976,0 5.913,-0.06 8.811,-0.174 4.657,-11.423 11.019,-21.974 18.778,-31.331 -8.981,0.991 -18.212,1.515 -27.588,1.515 z" /> <path
   id="XMLID_106_"
   d="m 149.981,160.244 c -6.49,9.757 -11.127,20.846 -13.408,32.762 -1.051,5.493 -1.608,11.16 -1.608,16.955 0,4.357 0.317,8.641 0.919,12.834 1.477,10.301 4.704,20.041 9.37,28.914 4.896,9.311 11.372,17.666 19.075,24.701 16.01,14.621 37.299,23.551 60.636,23.551 49.626,0 90,-40.374 90,-90 0,-49.627 -40.374,-90 -90,-90 -5.13,0 -10.158,0.438 -15.056,1.266 -24.947,4.219 -46.436,18.738 -59.928,39.017 z m 79.654,5.237 c 15.872,0 26.958,9.46 26.958,23.004 0,4.774 -2.851,7.625 -7.625,7.625 -5.268,0 -7.625,-3.333 -7.625,-6.637 0,-8.386 -8.111,-9.291 -11.599,-9.291 -8.02,0 -11.598,3.916 -11.598,12.697 v 3.029 h 14.563 c 3.717,0 6.857,3.19 6.857,6.967 0,3.78 -3.076,6.855 -6.857,6.855 h -14.563 v 2.546 h 14.563 c 3.717,0 6.857,3.191 6.857,6.966 0,3.78 -3.076,6.855 -6.857,6.855 h -14.563 v 1.383 c 0,8.248 3.83,12.258 11.708,12.258 3.454,0 11.488,-0.927 11.488,-9.512 0,-0.079 0.002,-0.157 0.007,-0.236 0.178,-3.003 2.279,-6.51 7.618,-6.51 4.774,0 7.625,2.851 7.625,7.625 0,13.738 -11.086,23.334 -26.958,23.334 -9.123,0 -16.237,-2.999 -20.828,-8.454 -3.011,-3.576 -4.936,-8.209 -5.623,-13.754 -0.188,-1.518 -0.287,-3.101 -0.287,-4.751 v -1.383 h -2.811 c -3.846,0 -6.746,-2.947 -6.746,-6.855 0,-3.906 2.963,-6.966 6.746,-6.966 h 2.811 v -2.546 h -2.811 c -3.792,0 -6.659,-2.868 -6.739,-6.694 0,-0.055 -0.007,-0.107 -0.007,-0.161 0,-3.906 2.963,-6.967 6.746,-6.967 h 1.981 0.829 v -0.866 -2.163 c 0,-8.751 2.464,-15.624 7.069,-20.299 4.56,-4.626 11.219,-7.099 19.671,-7.099 z" /> </g> </g>

</svg>
