<?xml version="1.0" encoding="UTF-8"?>
<svg width="500px" height="500px" viewBox="0 0 500 500" version="1.1" xmlns="http://www.w3.org/2000/svg" xmlns:xlink="http://www.w3.org/1999/xlink">
    <title>logo-io-app-2021</title>
    <g id="logo-io-app-2021" stroke="none" stroke-width="1" fill="none" fill-rule="evenodd">
        <g id="io-it-logo-blue" transform="translate(0.000000, 48.000000)" fill="#0066CC">
            <path d="M343.444227,403.75 C426.402972,403.75 500,330.218461 500,239.512712 C500,148.806962 426.402972,75.2754237 343.444227,75.2754237 C244.829904,75.2754237 171.232877,148.806962 171.232877,239.512712 C171.232877,330.218461 244.829904,403.75 343.444227,403.75 Z M301.644962,296.477533 L301.644962,204.307292 L325.749081,204.307292 L325.749081,296.641537 L301.644962,296.641537 L301.644962,296.477533 Z M396.305511,225.299803 L374.27658,225.299803 L374.27658,263.184724 C374.27658,266.956816 374.43621,269.416876 374.59584,271.056915 C374.75547,272.532951 375.39399,273.844983 376.511399,274.993011 C377.628809,276.141039 379.384738,276.633051 381.779187,276.633051 L395.507361,276.305043 L396.624771,295.985521 C388.643274,297.789565 382.417707,298.773589 378.267328,298.773589 C367.412493,298.773589 360.069516,296.313529 356.238398,291.229406 C352.24765,286.309286 350.332091,277.125063 350.332091,263.676736 L350.332091,178.558667 L374.43621,178.558667 L374.43621,204.143289 L396.465141,204.143289 L396.465141,225.299803 L396.305511,225.299803 Z M265.408967,232.351974 C261.258589,232.351974 257.746731,230.875939 255.033022,227.923867 C252.319313,224.971795 250.882644,221.363708 250.882644,217.099604 C250.882644,212.8355 252.319313,209.227413 254.873392,206.275341 C257.587101,203.323269 261.098959,202.011237 265.249337,202.011237 C269.399716,202.011237 272.911574,203.487272 275.625283,206.439344 C278.338992,209.391416 279.616031,212.999504 279.616031,217.427612 C279.616031,221.855719 278.338992,225.299803 275.625283,228.251875 C273.071204,230.875939 269.718976,232.351974 265.408967,232.351974 Z M50.02405,147.193796 C73.4011825,147.193796 92.3520925,166.144706 92.3520925,189.521838 L92.3520925,353.904808 C92.3520925,377.28194 73.4011825,396.23285 50.02405,396.23285 C26.6469177,396.23285 7.69600769,377.28194 7.69600769,353.904808 L7.69600769,189.521838 C7.69600769,166.144706 26.6469177,147.193796 50.02405,147.193796 Z M50.02405,100.711544 C22.3965301,100.711544 -3.55271368e-14,78.1664975 -3.55271368e-14,50.3557723 C-3.55271368e-14,22.5450472 22.3965301,0 50.02405,0 C77.65157,0 100.0481,22.5450472 100.0481,50.3557723 C100.0481,78.1664975 77.65157,100.711544 50.02405,100.711544 Z" id="Shape"></path>
        </g>
    </g>
</svg>