<?xml version="1.0" encoding="UTF-8" standalone="no"?>
<!-- Uploaded to: SVG Repo, www.svgrepo.com, Generator: SVG Repo Mixer Tools -->

<svg
   fill="#000000"
   version="1.1"
   id="Capa_1"
   width="800px"
   height="800px"
   viewBox="0 0 937.084 937.084"
   xml:space="preserve"
   sodipodi:docname="building-tower-svgrepo-com.svg"
   inkscape:version="1.2.2 (732a01da63, 2022-12-09)"
   xmlns:inkscape="http://www.inkscape.org/namespaces/inkscape"
   xmlns:sodipodi="http://sodipodi.sourceforge.net/DTD/sodipodi-0.dtd"
   xmlns="http://www.w3.org/2000/svg"
   xmlns:svg="http://www.w3.org/2000/svg"><defs
   id="defs11" /><sodipodi:namedview
   id="namedview9"
   pagecolor="#ffffff"
   bordercolor="#000000"
   borderopacity="0.25"
   inkscape:showpageshadow="2"
   inkscape:pageopacity="0.0"
   inkscape:pagecheckerboard="0"
   inkscape:deskcolor="#d1d1d1"
   showgrid="false"
   inkscape:zoom="0.518125"
   inkscape:cx="-154.40289"
   inkscape:cy="544.2702"
   inkscape:window-width="1920"
   inkscape:window-height="1009"
   inkscape:window-x="-8"
   inkscape:window-y="-8"
   inkscape:window-maximized="1"
   inkscape:current-layer="g4" />
<rect
   style="fill:#ffffff;stroke-width:0.468542;stroke-linecap:round;stroke-linejoin:round;fill-opacity:1"
   id="rect292"
   width="937.08398"
   height="937.08398"
   x="0"
   y="0" /><g
   id="g6">
	<g
   id="g4">
		<path
   d="M707.147,66V10c0-5.523-4.478-10-10-10H434.542c-5.523,0-10,4.477-10,10v46c0,5.523-4.477,10-10,10H239.937    c-5.523,0-10,4.477-10,10v814.915H78.542c-5.523,0-10,4.477-10,10v26.169c0,5.523,4.477,10,10,10h780c5.523,0,10-4.477,10-10    v-26.169c0-5.523-4.477-10-10-10H707.147V120V66z M336.665,647.643c0,5.523-4.477,10-10,10h-29.731c-5.522,0-10-4.477-10-10    v-30.997c0-5.523,4.478-10,10-10h29.731c5.523,0,10,4.477,10,10V647.643z M336.665,556.148c0,5.522-4.477,10-10,10h-29.731    c-5.522,0-10-4.478-10-10V525.15c0-5.523,4.478-10,10-10h29.731c5.523,0,10,4.477,10,10V556.148z M336.665,464.652    c0,5.522-4.477,10-10,10h-29.731c-5.522,0-10-4.478-10-10v-30.997c0-5.523,4.478-10,10-10h29.731c5.523,0,10,4.477,10,10V464.652z     M336.665,373.157c0,5.522-4.477,10-10,10h-29.731c-5.522,0-10-4.478-10-10v-30.998c0-5.523,4.478-10,10-10h29.731    c5.523,0,10,4.477,10,10V373.157z M336.665,281.661c0,5.523-4.477,10-10,10h-29.731c-5.522,0-10-4.477-10-10v-30.998    c0-5.523,4.478-10,10-10h29.731c5.523,0,10,4.477,10,10V281.661z M336.665,190.166c0,5.523-4.477,10-10,10h-29.731    c-5.522,0-10-4.477-10-10v-30.998c0-5.523,4.478-10,10-10h29.731c5.523,0,10,4.477,10,10V190.166z M570.542,890.915h-204V777.354    c0-5.523,4.477-10,10-10h184c5.523,0,10,4.477,10,10V890.915z M650.15,647.643c0,5.523-4.478,10-10,10H390.542    c-5.523,0-10-4.477-10-10v-30.997c0-5.523,4.477-10,10-10H640.15c5.522,0,10,4.477,10,10V647.643L650.15,647.643z M650.15,556.148    c0,5.522-4.478,10-10,10H390.542c-5.523,0-10-4.478-10-10V525.15c0-5.523,4.477-10,10-10H640.15c5.522,0,10,4.477,10,10V556.148    L650.15,556.148z M650.15,464.652c0,5.522-4.478,10-10,10H390.542c-5.523,0-10-4.478-10-10v-30.997c0-5.523,4.477-10,10-10H640.15    c5.522,0,10,4.477,10,10V464.652L650.15,464.652z M650.15,373.157c0,5.522-4.478,10-10,10H390.542c-5.523,0-10-4.478-10-10    v-30.998c0-5.523,4.477-10,10-10H640.15c5.522,0,10,4.477,10,10V373.157L650.15,373.157z M650.15,281.661c0,5.523-4.478,10-10,10    H390.542c-5.523,0-10-4.477-10-10v-30.998c0-5.523,4.477-10,10-10H640.15c5.522,0,10,4.477,10,10V281.661L650.15,281.661z     M650.15,190.166c0,5.523-4.478,10-10,10H390.542c-5.523,0-10-4.477-10-10v-30.998c0-5.523,4.477-10,10-10H640.15    c5.522,0,10,4.477,10,10V190.166L650.15,190.166z"
   id="path2"
   style="stroke:#000000;stroke-opacity:1;fill:#0066cc;fill-opacity:1" />
	</g>
</g>
</svg>
